<svg xmlns="http://www.w3.org/2000/svg" viewBox="0 0 512 512">
  <defs>
    <linearGradient id="bg" x1="0%" y1="0%" x2="100%" y2="100%">
      <stop offset="0%" style="stop-color:#667eea"/>
      <stop offset="100%" style="stop-color:#764ba2"/>
    </linearGradient>
    <linearGradient id="accent" x1="0%" y1="0%" x2="100%" y2="100%">
      <stop offset="0%" style="stop-color:#10b981"/>
      <stop offset="100%" style="stop-color:#059669"/>
    </linearGradient>
  </defs>
  <rect width="512" height="512" rx="96" fill="url(#bg)"/>
  <!-- Server icon -->
  <rect x="120" y="100" width="272" height="80" rx="12" fill="white" opacity="0.95"/>
  <circle cx="155" cy="140" r="10" fill="#10b981"/>
  <rect x="180" y="128" width="60" height="8" rx="4" fill="#94a3b8"/>
  <rect x="260" y="128" width="40" height="8" rx="4" fill="#cbd5e1"/>
  <rect x="320" y="125" width="50" height="14" rx="4" fill="#667eea" opacity="0.6"/>
  <!-- Middle server -->
  <rect x="120" y="210" width="272" height="80" rx="12" fill="white" opacity="0.95"/>
  <circle cx="155" cy="250" r="10" fill="#667eea"/>
  <rect x="180" y="238" width="60" height="8" rx="4" fill="#94a3b8"/>
  <rect x="260" y="238" width="40" height="8" rx="4" fill="#cbd5e1"/>
  <rect x="320" y="235" width="50" height="14" rx="4" fill="#10b981" opacity="0.6"/>
  <!-- Bottom server -->
  <rect x="120" y="320" width="272" height="80" rx="12" fill="white" opacity="0.95"/>
  <circle cx="155" cy="360" r="10" fill="#10b981"/>
  <rect x="180" y="348" width="60" height="8" rx="4" fill="#94a3b8"/>
  <rect x="260" y="348" width="40" height="8" rx="4" fill="#cbd5e1"/>
  <rect x="320" y="345" width="50" height="14" rx="4" fill="#764ba2" opacity="0.6"/>
  <!-- AI sparkle -->
  <circle cx="400" cy="120" r="24" fill="url(#accent)"/>
  <path d="M400 104 L404 116 L416 120 L404 124 L400 136 L396 124 L384 120 L396 116 Z" fill="white"/>
</svg>
